<?xml version="1.0" encoding="utf-8"?>
<svg width="1536px" height="1536px" id="svg2" version="1.1" viewBox="0 0 1536 1536" xmlns="http://www.w3.org/2000/svg" xmlns:xlink="http://www.w3.org/1999/xlink">
  <defs id="defs4">
    <linearGradient id="linearGradient4110">
      <stop style="stop-opacity: 1; stop-color: rgb(54, 47, 47);" offset="0" id="stop4112"/>
      <stop style="stop-opacity: 1;" offset="1" id="stop4114"/>
    </linearGradient>
    <linearGradient id="linearGradient4116" x1="511.68015" y1="0" x2="511.68015" y2="1461.4401" gradientUnits="userSpaceOnUse" gradientTransform="matrix(1.5, 0, 0, 1.501643, 0, 0)" xlink:href="#linearGradient4110"/>
  </defs>
  <rect style="color: rgb(0, 0, 0); fill: url(#linearGradient4116); fill-opacity: 1; fill-rule: nonzero; stroke: none; stroke-width: 2; marker: none; visibility: visible; display: inline; overflow: visible;" id="rect4108" width="1536" height="1536">
    <title>Background gradient</title>
  </rect>
  <g style="visibility: hidden;" transform="matrix(1.499983, 0, 0, 1.499944, 0.017593, 0.00901)">
    <title>Guides</title>
    <path d="M 352.20446 -0.00001 L 671.79554 -0.00001 C 773.21114 -0.00001 823.91893 -0.00001 878.50394 17.25958 C 938.10142 38.95131 985.04875 85.89857 1006.74048 145.49612 C 1024 200.08092 1024 250.78875 1024 352.20441 L 1024 671.79557 C 1024 773.21123 1024 823.91906 1006.74048 878.50386 C 985.04875 938.10144 938.10142 985.04863 878.50394 1006.7404 C 823.91893 1023.99999 773.21114 1023.99999 671.79554 1023.99999 L 352.20446 1023.99999 C 250.78886 1023.99999 200.08107 1023.99999 145.49606 1006.7404 C 85.89858 985.04863 38.95125 938.10144 17.25952 878.50386 C 0 823.91906 0 773.21123 0 671.79557 L 0 352.20441 C 0 250.78875 0 200.08092 17.25952 145.49616 C 38.95125 85.89861 85.89858 38.95131 145.49606 17.25958 C 200.08107 -0.00001 250.78886 -0.00001 352.20446 -0.00001 L 352.20446 -0.00001" id="path5" style="fill: none; stroke: rgb(0, 0, 0); stroke-opacity: 1;">
      <title>Outline</title>
    </path>
    <g id="layer6" style="display: inline;">
      <title>Corners</title>
      <path style="color: rgb(0, 0, 0); fill: rgb(255, 255, 255); fill-opacity: 1; fill-rule: nonzero; stroke: none; stroke-width: 2; marker: none; display: inline; overflow: visible;" d="m -0.03515625,708.40625 c 0.05564213,38.75762 0.61632351,71.02215 3.48917125,100.18549 0.8757813,8.89038 2.0231286,17.50673 3.364698,25.91301 2.7291509,17.10087 6.251639,30.63186 10.624705,44.6288 0.983104,3.14664 2.343873,6.00913 3.546782,8.89844 4.954414,11.90016 10.441772,22.62502 16.75229,32.23106 7.482354,11.38984 16.590926,23.44234 26.690428,33.79613 11.282296,11.56636 22.163363,20.60638 34.238258,28.7856 7.753914,5.2523 15.167714,9.80978 23.655414,13.91931 3.34329,1.61873 6.78353,3.25751 10.45545,4.87471 6.01057,2.6472 12.64725,5.2405 20.38236,7.4312 16.33865,4.6274 37.83594,9.5058 66.67436,11.7859 26.04947,2.0596 58.07248,3.2184 99.20801,3.1754 l -319.08192625,0 z" id="path4146"/>
      <path style="color: rgb(0, 0, 0); fill: rgb(255, 255, 255); fill-opacity: 1; fill-rule: nonzero; stroke: none; stroke-width: 2; marker: none; display: inline; overflow: visible;" d="m 1024,708.375 c -0.028,33.52476 -0.3641,57.51886 -2.1872,86.13032 -2.1429,33.63123 -7.6767,62.03085 -16.1313,85.82727 -5.1582,14.5187 -11.40374,27.32387 -18.62968,38.55822 -10.39312,16.15845 -22.65083,31.16786 -36.89519,44.46448 -6.86448,6.40775 -13.96935,11.81612 -21.91877,17.50161 -10.37402,7.41958 -20.2254,13.06198 -32.1818,18.6383 -10.69022,4.9858 -23.165,9.4996 -39.90567,13.451 -11.58454,2.7344 -25.21186,5.3376 -41.70422,7.0737 -27.23282,2.8667 -62.17789,3.4121 -108.25867,3.9801 L 1024,1024 z" id="path4146-5"/>
      <path style="color: rgb(0, 0, 0); fill: rgb(255, 255, 255); fill-opacity: 1; fill-rule: nonzero; stroke: none; stroke-width: 2; marker: none; display: inline; overflow: visible;" d="m 1023.9571,318.26274 c 0.1837,-39.14081 -0.2997,-73.55855 -3.476,-103.94061 -1.4113,-13.49969 -3.8539,-26.31006 -5.9548,-38.18792 -3.6187,-20.45841 -10.1174,-38.44655 -17.2973,-52.70888 -2.12747,-4.22606 -3.90726,-7.55456 -5.77779,-10.81658 -1.49793,-2.61224 -3.05404,-5.18185 -4.89348,-8.13563 -1.96035,-3.14791 -3.87346,-6.195884 -5.993,-9.197124 C 974.88453,87.232938 968.40279,79.35023 961.65509,72.082687 951.58996,61.242143 940.4011,51.100793 927.77306,42.698049 909.73264,30.693887 894.47219,21.390417 866.08729,13.614807 853.18652,10.080839 837.40303,6.7460486 817.42751,4.3881848 790.09127,1.1614792 754.65731,0.08073128 706.1875,0 L 1024,0 z" id="path4146-5-3"/>
      <path style="color: rgb(0, 0, 0); fill: rgb(255, 255, 255); fill-opacity: 1; fill-rule: nonzero; stroke: none; stroke-width: 2; marker: none; display: inline; overflow: visible;" d="M 0,318.48 C 0.04438432,264.21497 1.9515494,215.42652 8.7981727,178.4577 14.754939,146.29372 24.640519,123.97857 37.889606,103.37989 53.29125,79.434582 73.01483,58.195063 97.250401,42.030991 111.80438,32.324119 124.48551,25.310001 143.39137,18.055461 153.25339,14.271217 164.74156,11.469151 178.08885,8.8727346 208.3231,2.9913388 250.69975,-0.29260813 319.08193,0 L 0,0 z" id="path4146-5-3-7"/>
    </g>
    <g id="layer2" style="display: inline;" transform="matrix(1, 0, 0, 1, 0, -2.205444)">
      <title>Grid</title>
      <path style="color: rgb(0, 0, 0); fill: none; stroke: rgb(0, 0, 0); stroke-width: 2; stroke-linecap: butt; stroke-linejoin: miter; stroke-miterlimit: 4; stroke-opacity: 1; stroke-dasharray: none; stroke-dashoffset: 0; marker: none; display: inline; overflow: visible;" d="m 0.99801512,321.03518 0,386.27669" id="path4024"/>
      <path style="color: rgb(0, 0, 0); fill: none; stroke: rgb(0, 0, 0); stroke-width: 1.00571; stroke-linecap: butt; stroke-linejoin: miter; stroke-miterlimit: 4; stroke-opacity: 1; stroke-dasharray: none; stroke-dashoffset: 0; marker: none; display: inline; overflow: visible;" id="path3129" d="m 600.32144,298.86218 a 138,138 0 1 1 -276,0 138,138 0 1 1 276,0 z" transform="matrix(1.988799,0,0,1.988471,-407.91018,-80.585593)"/>
      <path style="color: rgb(0, 0, 0); fill: none; stroke: rgb(0, 0, 0); stroke-width: 0.620861; stroke-linecap: butt; stroke-linejoin: miter; stroke-miterlimit: 4; stroke-opacity: 1; stroke-dasharray: none; stroke-dashoffset: 0; marker: none; display: inline; overflow: visible;" id="path3129-9" d="m 600.32144,298.86218 a 138,138 0 1 1 -276,0 138,138 0 1 1 276,0 z" transform="matrix(3.2215081,0,0,3.2211587,-977.38931,-448.55899)"/>
      <path style="color: rgb(0, 0, 0); fill: none; stroke: rgb(0, 0, 0); stroke-width: 2; stroke-linecap: butt; stroke-linejoin: miter; stroke-miterlimit: 4; stroke-opacity: 1; stroke-dasharray: none; stroke-dashoffset: 0; marker: none; display: inline; overflow: visible;" d="M 67.351921,69.489974 956.5625,958.70544" id="path4011"/>
      <path style="color: rgb(0, 0, 0); fill: none; stroke: rgb(0, 0, 0); stroke-width: 2; stroke-linecap: butt; stroke-linejoin: miter; stroke-miterlimit: 4; stroke-opacity: 1; stroke-dasharray: none; stroke-dashoffset: 0; marker: none; display: inline; overflow: visible;" d="m 0.99801467,707.31189 1022.00298533,0" id="path4028"/>
      <path style="color: rgb(0, 0, 0); fill: none; stroke: rgb(0, 0, 0); stroke-width: 2; stroke-linecap: butt; stroke-linejoin: miter; stroke-miterlimit: 4; stroke-opacity: 1; stroke-dasharray: none; stroke-dashoffset: 0; marker: none; display: inline; overflow: visible;" d="m 0.99801467,513.69318 1022.00298533,0" id="path4030"/>
      <path style="color: rgb(0, 0, 0); fill: none; stroke: rgb(0, 0, 0); stroke-width: 2; stroke-linecap: butt; stroke-linejoin: miter; stroke-miterlimit: 4; stroke-opacity: 1; stroke-dasharray: none; stroke-dashoffset: 0; marker: none; display: inline; overflow: visible;" d="m 0.99801467,321.0352 1022.00298533,0" id="path4032"/>
      <path style="color: rgb(0, 0, 0); fill: none; stroke: rgb(0, 0, 0); stroke-width: 2; stroke-linecap: butt; stroke-linejoin: miter; stroke-miterlimit: 4; stroke-opacity: 1; stroke-dasharray: none; stroke-dashoffset: 0; marker: none; display: inline; overflow: visible;" d="m 319.08193,1026.2054 0,-1023.9999557" id="path4034"/>
      <path style="color: rgb(0, 0, 0); fill: none; stroke: rgb(0, 0, 0); stroke-width: 2; stroke-linecap: butt; stroke-linejoin: miter; stroke-miterlimit: 4; stroke-opacity: 1; stroke-dasharray: none; stroke-dashoffset: 0; marker: none; display: inline; overflow: visible;" d="m 511.68014,2.2054443 0,1023.9999557" id="path4036"/>
      <path style="color: rgb(0, 0, 0); fill: none; stroke: rgb(0, 0, 0); stroke-width: 2; stroke-linecap: butt; stroke-linejoin: miter; stroke-miterlimit: 4; stroke-opacity: 1; stroke-dasharray: none; stroke-dashoffset: 0; marker: none; display: inline; overflow: visible;" d="m 706.1875,1026.2054 0,-1023.9999557" id="path4038"/>
      <path style="color: rgb(0, 0, 0); fill: none; stroke: rgb(0, 0, 0); stroke-width: 2; stroke-linecap: butt; stroke-linejoin: miter; stroke-miterlimit: 4; stroke-opacity: 1; stroke-dasharray: none; stroke-dashoffset: 0; marker: none; display: inline; overflow: visible;" d="M 67.351921,958.70544 956.5625,69.489974" id="path4001"/>
      <path style="color: rgb(0, 0, 0); fill: none; stroke: rgb(0, 0, 0); stroke-width: 2; stroke-linecap: butt; stroke-linejoin: miter; stroke-miterlimit: 4; stroke-opacity: 1; stroke-dasharray: none; stroke-dashoffset: 0; marker: none; display: inline; overflow: visible;" d="m 956.5625,69.489974 0,889.215466" id="path4003"/>
      <path style="color: rgb(0, 0, 0); fill: none; stroke: rgb(0, 0, 0); stroke-width: 2; stroke-linecap: butt; stroke-linejoin: miter; stroke-miterlimit: 4; stroke-opacity: 1; stroke-dasharray: none; stroke-dashoffset: 0; marker: none; display: inline; overflow: visible;" d="m 67.351921,69.489974 889.210579,0" id="path4009"/>
      <path style="color: rgb(0, 0, 0); fill: none; stroke: rgb(0, 0, 0); stroke-width: 2; stroke-linecap: butt; stroke-linejoin: miter; stroke-miterlimit: 4; stroke-opacity: 1; stroke-dasharray: none; stroke-dashoffset: 0; marker: none; display: inline; overflow: visible;" d="m 67.351921,958.70544 0,-889.215466" id="path4007"/>
      <path style="color: rgb(0, 0, 0); fill: none; stroke: rgb(0, 0, 0); stroke-width: 2; stroke-linecap: butt; stroke-linejoin: miter; stroke-miterlimit: 4; stroke-opacity: 1; stroke-dasharray: none; stroke-dashoffset: 0; marker: none; display: inline; overflow: visible;" d="m 956.5625,958.70544 -889.210579,-3e-5" id="path4005"/>
      <path style="color: rgb(0, 0, 0); fill: none; stroke: rgb(0, 0, 0); stroke-width: 1.42908; stroke-linecap: butt; stroke-linejoin: miter; stroke-miterlimit: 4; stroke-opacity: 1; stroke-dasharray: none; stroke-dashoffset: 0; marker: none; display: inline; overflow: visible;" id="path3129-7" d="m 600.32144,298.86218 a 138,138 0 1 1 -276,0 138,138 0 1 1 276,0 z" transform="matrix(1.4025564,0,0,1.3964479,-135.79717,96.569794)"/>
    </g>
  </g>
  <g transform="matrix(1.251688, 0, 0, 1.271859, -340.572968, -149.924026)" style="">
    <g transform="matrix(1, 0, 0, 1, 1.040649, 0)">
      <rect style="fill: rgb(230, 4, 4); stroke: rgb(170, 49, 49); stroke-width: 20px;" x="756.45782" y="318.35416" width="256" height="256" rx="25" ry="25">
        <title>Red</title>
      </rect>
      <rect style="fill: rgb(4, 110, 230); stroke: rgb(51, 26, 219); stroke-width: 20px;" x="480.26813" y="318.35416" width="256" height="256" rx="25" ry="25">
        <title>Blue</title>
      </rect>
      <rect style="fill: rgb(230, 111, 4); stroke: rgb(215, 75, 14); stroke-width: 20px;" x="1032.97534" y="318.35416" width="256" height="256" rx="25" ry="25">
        <title>Orange</title>
      </rect>
    </g>
    <g>
      <rect style="fill: rgb(230, 208, 4); stroke: rgb(194, 164, 31); stroke-width: 20px;" x="758.86694" y="869.08252" width="256" height="256" rx="25" ry="25">
        <title>Yellow</title>
      </rect>
      <rect style="fill: rgb(16, 230, 4); stroke: rgb(48, 197, 65); stroke-width: 20px;" x="756.45782" y="593.66907" width="256" height="256" rx="25" ry="25">
        <title>Green</title>
      </rect>
    </g>
  </g>
</svg>