<?xml version="1.0" encoding="utf-8"?>
<svg viewBox="0 0 1472 192" width="1472px" height="192px" xmlns="http://www.w3.org/2000/svg" xmlns:bx="https://boxy-svg.com">
  <defs>
    <bx:grid x="1" y="1" width="32" height="32"/>
  </defs>
  <rect style="fill: rgb(255, 255, 0); stroke: rgb(136, 136, 0); stroke-width: 2px;" width="30" height="30" rx="3" ry="3" y="129" x="1">
    <title>Yellow</title>
  </rect>
  <rect style="fill: rgb(255, 255, 0); stroke: rgb(136, 136, 0); stroke-width: 2px;" width="30" height="30" rx="3" ry="3" y="129" x="33">
    <title>Yellow</title>
  </rect>
  <rect style="stroke-width: 2px; fill: rgb(255, 136, 0); stroke: rgb(136, 68, 0);" width="30" height="30" rx="3" ry="3" x="289" y="160.99998">
    <title>Orange</title>
  </rect>
  <rect style="fill: rgb(255, 0, 0); stroke: rgb(136, 0, 0); stroke-width: 2px;" width="30" height="30" rx="3" ry="3" x="929" y="97">
    <title>Red</title>
  </rect>
  <rect style="fill: rgb(255, 255, 0); stroke: rgb(136, 136, 0); stroke-width: 2px;" width="30" height="30" rx="3" ry="3" x="961" y="65">
    <title>Yellow</title>
  </rect>
  <rect style="fill: rgb(0, 0, 255); stroke: rgb(0, 0, 136); stroke-width: 2px;" width="30" height="30" rx="3" ry="3" x="737" y="1">
    <title>Blue</title>
  </rect>
  <rect style="stroke-width: 2px; fill: rgb(255, 136, 0); stroke: rgb(136, 68, 0);" width="30" height="30" rx="3" ry="3" y="1" x="769">
    <title>Orange</title>
  </rect>
  <rect style="stroke-width: 2px; fill: rgb(255, 0, 255); stroke: rgb(136, 0, 136);" width="30" height="30" rx="3" ry="3" x="257" y="97">
    <title>Purple</title>
  </rect>
  <rect style="fill: rgb(0, 255, 255); stroke: rgb(0, 128, 128); paint-order: fill; stroke-width: 2px;" width="30" height="29.9921" rx="3" ry="3" x="161" y="65">
    <title>Cyan</title>
  </rect>
  <rect style="stroke-width: 2px; fill: rgb(255, 136, 0); stroke: rgb(136, 68, 0);" width="30" height="30" rx="3" ry="3" x="33" y="1">
    <title>Orange</title>
  </rect>
  <rect style="stroke-width: 2px; fill: rgb(255, 136, 0); stroke: rgb(136, 68, 0);" width="30" height="30" rx="3" ry="3" y="33" x="1">
    <title>Orange</title>
  </rect>
  <rect style="stroke-width: 2px; fill: rgb(255, 136, 0); stroke: rgb(136, 68, 0);" width="30" height="30" rx="3" ry="3" x="33" y="33">
    <title>Orange</title>
  </rect>
  <rect style="stroke-width: 2px; fill: rgb(255, 136, 0); stroke: rgb(136, 68, 0);" width="30" height="30" rx="3" ry="3" y="65" x="1">
    <title>Orange</title>
  </rect>
  <rect style="stroke-width: 2px; fill: rgb(255, 136, 0); stroke: rgb(136, 68, 0);" width="30" height="30" rx="3" ry="3" x="33" y="65">
    <title>Orange</title>
  </rect>
  <rect style="stroke-width: 2px; fill: rgb(255, 136, 0); stroke: rgb(136, 68, 0);" width="30" height="30" rx="3" ry="3" y="97" x="1">
    <title>Orange</title>
  </rect>
  <rect style="stroke-width: 2px; fill: rgb(255, 136, 0); stroke: rgb(136, 68, 0);" width="30" height="30" rx="3" ry="3" x="33" y="97">
    <title>Orange</title>
  </rect>
  <rect style="fill: rgb(255, 255, 0); stroke: rgb(136, 136, 0); stroke-width: 2px;" width="30" height="30" rx="3" ry="3" y="161" x="1">
    <title>Yellow</title>
  </rect>
  <rect style="fill: rgb(255, 255, 0); stroke: rgb(136, 136, 0); stroke-width: 2px;" width="30" height="30" rx="3" ry="3" y="161" x="33">
    <title>Yellow</title>
  </rect>
  <rect style="stroke-width: 2px; fill: rgb(0, 255, 0); stroke: rgb(0, 128, 0);" width="30" height="30" rx="3" ry="3" x="65" y="33">
    <title>Green</title>
  </rect>
  <rect style="stroke-width: 2px; fill: rgb(0, 255, 0); stroke: rgb(0, 128, 0);" width="30" height="30" rx="3" ry="3" x="65" y="65">
    <title>Green</title>
  </rect>
  <rect style="stroke-width: 2px; fill: rgb(0, 255, 0); stroke: rgb(0, 128, 0);" width="30" height="30" rx="3" ry="3" x="97" y="65">
    <title>Green</title>
  </rect>
  <rect style="stroke-width: 2px; fill: rgb(0, 255, 0); stroke: rgb(0, 128, 0);" width="30" height="30" rx="3" ry="3" x="97" y="97">
    <title>Green</title>
  </rect>
  <rect style="fill: rgb(255, 0, 0); stroke: rgb(136, 0, 0); stroke-width: 2px;" width="30" height="30" rx="3" ry="3" x="129" y="65">
    <title>Red</title>
  </rect>
  <rect style="fill: rgb(255, 0, 0); stroke: rgb(136, 0, 0); stroke-width: 2px;" width="30" height="30" rx="3" ry="3" x="129" y="33">
    <title>Red</title>
  </rect>
  <rect style="fill: rgb(255, 0, 0); stroke: rgb(136, 0, 0); stroke-width: 2px;" width="30" height="30" rx="3" ry="3" x="161" y="33">
    <title>Red</title>
  </rect>
  <rect style="fill: rgb(255, 0, 0); stroke: rgb(136, 0, 0); stroke-width: 2px;" width="30" height="30" rx="3" ry="3" x="161" y="1">
    <title>Red</title>
  </rect>
  <rect style="fill: rgb(0, 255, 255); stroke: rgb(0, 128, 128); paint-order: fill; stroke-width: 2px;" width="30" height="29.9921" rx="3" ry="3" x="161" y="97">
    <title>Cyan</title>
  </rect>
  <rect style="fill: rgb(0, 255, 255); stroke: rgb(0, 128, 128); paint-order: fill; stroke-width: 2px;" width="30" height="29.9921" rx="3" ry="3" x="161" y="129">
    <title>Cyan</title>
  </rect>
  <rect style="fill: rgb(0, 255, 255); stroke: rgb(0, 128, 128); paint-order: fill; stroke-width: 2px;" width="30" height="29.9921" rx="3" ry="3" x="161" y="161">
    <title>Cyan</title>
  </rect>
  <rect style="stroke-width: 2px; fill: rgb(255, 0, 255); stroke: rgb(136, 0, 136);" width="30" height="30" rx="3" ry="3" x="225" y="129">
    <title>Purple</title>
  </rect>
  <rect style="stroke-width: 2px; fill: rgb(255, 0, 255); stroke: rgb(136, 0, 136);" width="30" height="30" rx="3" ry="3" x="257" y="129">
    <title>Purple</title>
  </rect>
  <rect style="stroke-width: 2px; fill: rgb(255, 0, 255); stroke: rgb(136, 0, 136);" width="30" height="30" rx="3" ry="3" x="257" y="161">
    <title>Purple</title>
  </rect>
  <rect style="stroke-width: 2px; fill: rgb(255, 136, 0); stroke: rgb(136, 68, 0);" width="30" height="30" rx="3" ry="3" x="1" y="1">
    <title>Orange</title>
  </rect>
  <rect style="stroke-width: 2px; fill: rgb(255, 136, 0); stroke: rgb(136, 68, 0);" width="30" height="30" rx="3" ry="3" x="321" y="161">
    <title>Orange</title>
  </rect>
  <rect style="stroke-width: 2px; fill: rgb(255, 136, 0); stroke: rgb(136, 68, 0);" width="30" height="30" rx="3" ry="3" x="353" y="161">
    <title>Orange</title>
  </rect>
  <rect style="stroke-width: 2px; fill: rgb(255, 136, 0); stroke: rgb(136, 68, 0);" width="30" height="30" rx="3" ry="3" x="353" y="129">
    <title>Orange</title>
  </rect>
  <rect style="stroke-width: 2px; fill: rgb(255, 136, 0); stroke: rgb(136, 68, 0);" width="30" height="30" rx="3" ry="3" x="353" y="97">
    <title>Orange</title>
  </rect>
  <rect style="stroke-width: 2px; fill: rgb(255, 136, 0); stroke: rgb(136, 68, 0);" width="30" height="30" rx="3" ry="3" x="353" y="65">
    <title>Orange</title>
  </rect>
  <rect style="stroke-width: 2px; fill: rgb(255, 136, 0); stroke: rgb(136, 68, 0);" width="30" height="30" rx="3" ry="3" x="321" y="97">
    <title>Orange</title>
  </rect>
  <rect style="stroke-width: 2px; fill: rgb(255, 136, 0); stroke: rgb(136, 68, 0);" width="30" height="30" rx="3" ry="3" x="289" y="97">
    <title>Orange</title>
  </rect>
  <rect style="fill: rgb(0, 255, 255); stroke: rgb(0, 128, 128); paint-order: fill; stroke-width: 2px;" width="30" height="29.9921" rx="3" ry="3" x="385" y="65">
    <title>Cyan</title>
  </rect>
  <rect style="fill: rgb(0, 255, 255); stroke: rgb(0, 128, 128); paint-order: fill; stroke-width: 2px;" width="30" height="29.9921" rx="3" ry="3" x="385" y="97">
    <title>Cyan</title>
  </rect>
  <rect style="fill: rgb(0, 255, 255); stroke: rgb(0, 128, 128); paint-order: fill; stroke-width: 2px;" width="30" height="29.9921" rx="3" ry="3" x="385" y="129.00002">
    <title>Cyan</title>
  </rect>
  <rect style="fill: rgb(0, 255, 255); stroke: rgb(0, 128, 128); paint-order: fill; stroke-width: 2px;" width="30" height="29.9921" rx="3" ry="3" x="385" y="161.00002">
    <title>Cyan</title>
  </rect>
  <rect style="fill: rgb(0, 255, 255); stroke: rgb(0, 128, 128); paint-order: fill; stroke-width: 2px;" width="30" height="29.9921" rx="3" ry="3" x="353" y="33">
    <title>Cyan</title>
  </rect>
  <rect style="fill: rgb(0, 255, 255); stroke: rgb(0, 128, 128); paint-order: fill; stroke-width: 2px;" width="30" height="29.9921" rx="3" ry="3" x="321" y="33">
    <title>Cyan</title>
  </rect>
  <rect style="fill: rgb(0, 255, 255); stroke: rgb(0, 128, 128); paint-order: fill; stroke-width: 2px;" width="30" height="29.9921" rx="3" ry="3" x="257" y="33">
    <title>Cyan</title>
  </rect>
  <rect style="fill: rgb(0, 255, 255); stroke: rgb(0, 128, 128); paint-order: fill; stroke-width: 2px;" width="30" height="29.9921" rx="3" ry="3" x="289" y="33">
    <title>Cyan</title>
  </rect>
  <rect style="fill: rgb(255, 255, 0); stroke: rgb(136, 136, 0); stroke-width: 2px;" width="30" height="30" rx="3" ry="3" y="97" x="449">
    <title>Yellow</title>
  </rect>
  <rect style="fill: rgb(255, 255, 0); stroke: rgb(136, 136, 0); stroke-width: 2px;" width="30" height="30" rx="3" ry="3" y="65" x="449">
    <title>Yellow</title>
  </rect>
  <rect style="fill: rgb(255, 255, 0); stroke: rgb(136, 136, 0); stroke-width: 2px;" width="30" height="30" rx="3" ry="3" y="65" x="481">
    <title>Yellow</title>
  </rect>
  <rect style="fill: rgb(255, 255, 0); stroke: rgb(136, 136, 0); stroke-width: 2px;" width="30" height="30" rx="3" ry="3" y="97" x="481">
    <title>Yellow</title>
  </rect>
  <rect style="fill: rgb(0, 255, 255); stroke: rgb(0, 128, 128); paint-order: fill; stroke-width: 2px;" width="30" height="29.9921" rx="3" ry="3" x="577" y="33">
    <title>Cyan</title>
  </rect>
  <rect style="fill: rgb(0, 255, 255); stroke: rgb(0, 128, 128); paint-order: fill; stroke-width: 2px;" width="30" height="29.9921" rx="3" ry="3" x="545" y="33">
    <title>Cyan</title>
  </rect>
  <rect style="fill: rgb(0, 255, 255); stroke: rgb(0, 128, 128); paint-order: fill; stroke-width: 2px;" width="30" height="29.9921" rx="3" ry="3" x="481" y="33">
    <title>Cyan</title>
  </rect>
  <rect style="fill: rgb(0, 255, 255); stroke: rgb(0, 128, 128); paint-order: fill; stroke-width: 2px;" width="30" height="29.9921" rx="3" ry="3" x="513" y="33">
    <title>Cyan</title>
  </rect>
  <rect style="fill: rgb(255, 0, 0); stroke: rgb(136, 0, 0); stroke-width: 2px;" width="30" height="30" rx="3" ry="3" x="449" y="129">
    <title>Red</title>
  </rect>
  <rect style="fill: rgb(255, 0, 0); stroke: rgb(136, 0, 0); stroke-width: 2px;" width="30" height="30" rx="3" ry="3" x="481" y="129">
    <title>Red</title>
  </rect>
  <rect style="fill: rgb(255, 0, 0); stroke: rgb(136, 0, 0); stroke-width: 2px;" width="30" height="30" rx="3" ry="3" x="481" y="161">
    <title>Red</title>
  </rect>
  <rect style="fill: rgb(255, 0, 0); stroke: rgb(136, 0, 0); stroke-width: 2px;" width="30" height="30" rx="3" ry="3" x="513" y="161">
    <title>Red</title>
  </rect>
  <rect style="fill: rgb(0, 0, 255); stroke: rgb(0, 0, 136); stroke-width: 2px;" width="30" height="30" rx="3" ry="3" x="609" y="65">
    <title>Blue</title>
  </rect>
  <rect style="stroke-width: 2px; fill: rgb(255, 136, 0); stroke: rgb(136, 68, 0);" width="30" height="30" rx="3" ry="3" x="545" y="161">
    <title>Orange</title>
  </rect>
  <rect style="stroke-width: 2px; fill: rgb(255, 136, 0); stroke: rgb(136, 68, 0);" width="30" height="30" rx="3" ry="3" x="577" y="161">
    <title>Orange</title>
  </rect>
  <rect style="stroke-width: 2px; fill: rgb(255, 136, 0); stroke: rgb(136, 68, 0);" width="30" height="30" rx="3" ry="3" x="609" y="129">
    <title>Orange</title>
  </rect>
  <rect style="fill: rgb(0, 0, 255); stroke: rgb(0, 0, 136); stroke-width: 2px;" width="30" height="30" rx="3" ry="3" x="705" y="1">
    <title>Blue</title>
  </rect>
  <rect style="fill: rgb(0, 0, 255); stroke: rgb(0, 0, 136); stroke-width: 2px;" width="30" height="30" rx="3" ry="3" x="673" y="1">
    <title>Blue</title>
  </rect>
  <rect style="fill: rgb(0, 0, 255); stroke: rgb(0, 0, 136); stroke-width: 2px;" width="30" height="30" rx="3" ry="3" x="737" y="33">
    <title>Blue</title>
  </rect>
  <rect style="stroke-width: 2px; fill: rgb(255, 136, 0); stroke: rgb(136, 68, 0);" width="30" height="30" rx="3" ry="3" y="33" x="769">
    <title>Orange</title>
  </rect>
  <rect style="stroke-width: 2px; fill: rgb(255, 136, 0); stroke: rgb(136, 68, 0);" width="30" height="30" rx="3" ry="3" y="1" x="801">
    <title>Orange</title>
  </rect>
  <rect style="stroke-width: 2px; fill: rgb(255, 136, 0); stroke: rgb(136, 68, 0);" width="30" height="30" rx="3" ry="3" y="1" x="833">
    <title>Orange</title>
  </rect>
  <rect style="fill: rgb(255, 255, 0); stroke: rgb(136, 136, 0); stroke-width: 2px;" width="30" height="30" rx="3" ry="3" y="97" x="737">
    <title>Yellow</title>
  </rect>
  <rect style="fill: rgb(255, 255, 0); stroke: rgb(136, 136, 0); stroke-width: 2px;" width="30" height="30" rx="3" ry="3" y="65" x="737">
    <title>Yellow</title>
  </rect>
  <rect style="fill: rgb(255, 255, 0); stroke: rgb(136, 136, 0); stroke-width: 2px;" width="30" height="30" rx="3" ry="3" y="65" x="769">
    <title>Yellow</title>
  </rect>
  <rect style="fill: rgb(255, 255, 0); stroke: rgb(136, 136, 0); stroke-width: 2px;" width="30" height="30" rx="3" ry="3" y="97" x="769">
    <title>Yellow</title>
  </rect>
  <rect style="fill: rgb(255, 255, 0); stroke: rgb(136, 136, 0); stroke-width: 2px;" width="30" height="30" rx="3" ry="3" y="161" x="737">
    <title>Yellow</title>
  </rect>
  <rect style="fill: rgb(255, 255, 0); stroke: rgb(136, 136, 0); stroke-width: 2px;" width="30" height="30" rx="3" ry="3" y="129" x="737">
    <title>Yellow</title>
  </rect>
  <rect style="fill: rgb(255, 255, 0); stroke: rgb(136, 136, 0); stroke-width: 2px;" width="30" height="30" rx="3" ry="3" y="129" x="769">
    <title>Yellow</title>
  </rect>
  <rect style="fill: rgb(255, 255, 0); stroke: rgb(136, 136, 0); stroke-width: 2px;" width="30" height="30" rx="3" ry="3" y="161" x="769">
    <title>Yellow</title>
  </rect>
  <rect style="stroke-width: 2px; fill: rgb(255, 0, 255); stroke: rgb(136, 0, 136);" width="30" height="30" rx="3" ry="3" x="897" y="33">
    <title>Purple</title>
  </rect>
  <rect style="stroke-width: 2px; fill: rgb(255, 0, 255); stroke: rgb(136, 0, 136);" width="30" height="30" rx="3" ry="3" x="897" y="97">
    <title>Purple</title>
  </rect>
  <rect style="stroke-width: 2px; fill: rgb(255, 0, 255); stroke: rgb(136, 0, 136);" width="30" height="30" rx="3" ry="3" x="897" y="65">
    <title>Purple</title>
  </rect>
  <rect style="stroke-width: 2px; fill: rgb(255, 0, 255); stroke: rgb(136, 0, 136);" width="30" height="30" rx="3" ry="3" x="929" y="65">
    <title>Purple</title>
  </rect>
  <rect style="fill: rgb(255, 0, 0); stroke: rgb(136, 0, 0); stroke-width: 2px;" width="30" height="30" rx="3" ry="3" x="897" y="129">
    <title>Red</title>
  </rect>
  <rect style="fill: rgb(255, 0, 0); stroke: rgb(136, 0, 0); stroke-width: 2px;" width="30" height="30" rx="3" ry="3" x="929" y="129">
    <title>Red</title>
  </rect>
  <rect style="fill: rgb(255, 0, 0); stroke: rgb(136, 0, 0); stroke-width: 2px;" width="30" height="30" rx="3" ry="3" x="897" y="161">
    <title>Red</title>
  </rect>
  <rect style="fill: rgb(0, 0, 255); stroke: rgb(0, 0, 136); stroke-width: 2px;" width="30" height="30" rx="3" ry="3" x="929" y="161">
    <title>Blue</title>
  </rect>
  <rect style="fill: rgb(255, 255, 0); stroke: rgb(136, 136, 0); stroke-width: 2px;" width="30" height="30" rx="3" ry="3" x="961" y="33">
    <title>Yellow</title>
  </rect>
  <rect style="fill: rgb(255, 255, 0); stroke: rgb(136, 136, 0); stroke-width: 2px;" width="30" height="30" rx="3" ry="3" x="993" y="33">
    <title>Yellow</title>
  </rect>
  <rect style="fill: rgb(255, 255, 0); stroke: rgb(136, 136, 0); stroke-width: 2px;" width="30" height="30" rx="3" ry="3" x="993" y="65">
    <title>Yellow</title>
  </rect>
  <rect style="stroke-width: 2px; fill: rgb(0, 255, 0); stroke: rgb(0, 128, 0);" width="30" height="30" rx="3" ry="3" x="1025" y="33">
    <title>Green</title>
  </rect>
  <rect style="stroke-width: 2px; fill: rgb(0, 255, 0); stroke: rgb(0, 128, 0);" width="30" height="30" rx="3" ry="3" x="1025" y="65">
    <title>Green</title>
  </rect>
  <rect style="stroke-width: 2px; fill: rgb(0, 255, 0); stroke: rgb(0, 128, 0);" width="30" height="30" rx="3" ry="3" x="1057" y="65">
    <title>Green</title>
  </rect>
  <rect style="stroke-width: 2px; fill: rgb(0, 255, 0); stroke: rgb(0, 128, 0);" width="30" height="30" rx="3" ry="3" x="1057" y="97">
    <title>Green</title>
  </rect>
  <rect style="fill: rgb(0, 0, 255); stroke: rgb(0, 0, 136); stroke-width: 2px;" width="30" height="30" rx="3" ry="3" x="1153" y="97">
    <title>Blue</title>
  </rect>
  <rect style="stroke-width: 2px; fill: rgb(255, 0, 255); stroke: rgb(136, 0, 136);" width="30" height="30" rx="3" ry="3" x="1153" y="65">
    <title>Purple</title>
  </rect>
  <rect style="stroke-width: 2px; fill: rgb(255, 0, 255); stroke: rgb(136, 0, 136);" width="30" height="30" rx="3" ry="3" x="1121" y="65">
    <title>Purple</title>
  </rect>
  <rect style="stroke-width: 2px; fill: rgb(255, 0, 255); stroke: rgb(136, 0, 136);" width="30" height="30" rx="3" ry="3" x="1185" y="65">
    <title>Purple</title>
  </rect>
  <rect style="fill: rgb(0, 0, 255); stroke: rgb(0, 0, 136); stroke-width: 2px;" width="30" height="30" rx="3" ry="3" x="1153" y="129">
    <title>Blue</title>
  </rect>
  <rect style="fill: rgb(0, 0, 255); stroke: rgb(0, 0, 136); stroke-width: 2px;" width="30" height="30" rx="3" ry="3" x="1153" y="161">
    <title>Blue</title>
  </rect>
  <rect style="fill: rgb(0, 0, 255); stroke: rgb(0, 0, 136); stroke-width: 2px;" width="30" height="30" rx="3" ry="3" x="1121" y="161">
    <title>Blue</title>
  </rect>
  <rect style="stroke-width: 2px; fill: rgb(255, 136, 0); stroke: rgb(136, 68, 0);" width="30" height="30" rx="3" ry="3" y="97" x="1185">
    <title>Orange</title>
  </rect>
  <rect style="stroke-width: 2px; fill: rgb(255, 136, 0); stroke: rgb(136, 68, 0);" width="30" height="30" rx="3" ry="3" y="129" x="1185">
    <title>Orange</title>
  </rect>
  <rect style="stroke-width: 2px; fill: rgb(255, 136, 0); stroke: rgb(136, 68, 0);" width="30" height="30" rx="3" ry="3" y="161" x="1185">
    <title>Orange</title>
  </rect>
  <rect style="stroke-width: 2px; fill: rgb(255, 136, 0); stroke: rgb(136, 68, 0);" width="30" height="30" rx="3" ry="3" y="161" x="1217">
    <title>Orange</title>
  </rect>
  <rect style="fill: rgb(255, 255, 0); stroke: rgb(136, 136, 0); stroke-width: 2px;" width="30" height="30" rx="3" ry="3" y="1" x="1185">
    <title>Yellow</title>
  </rect>
  <rect style="fill: rgb(255, 255, 0); stroke: rgb(136, 136, 0); stroke-width: 2px;" width="30" height="30" rx="3" ry="3" y="1" x="1153">
    <title>Yellow</title>
  </rect>
  <rect style="fill: rgb(0, 255, 255); stroke: rgb(0, 128, 128); paint-order: fill; stroke-width: 2px;" width="30" height="29.9921" rx="3" ry="3" x="1313" y="161">
    <title>Cyan</title>
  </rect>
  <rect style="fill: rgb(0, 255, 255); stroke: rgb(0, 128, 128); paint-order: fill; stroke-width: 2px;" width="30" height="29.9921" rx="3" ry="3" x="1281" y="161">
    <title>Cyan</title>
  </rect>
  <rect style="fill: rgb(0, 255, 255); stroke: rgb(0, 128, 128); paint-order: fill; stroke-width: 2px;" width="30" height="29.9921" rx="3" ry="3" x="1345" y="161">
    <title>Cyan</title>
  </rect>
  <rect style="fill: rgb(0, 255, 255); stroke: rgb(0, 128, 128); paint-order: fill; stroke-width: 2px;" width="30" height="29.9921" rx="3" ry="3" x="1377" y="161">
    <title>Cyan</title>
  </rect>
  <rect style="stroke-width: 2px; fill: rgb(255, 0, 255); stroke: rgb(136, 0, 136);" width="30" height="30" rx="3" ry="3" x="1409" y="161">
    <title>Purple</title>
  </rect>
  <rect style="stroke-width: 2px; fill: rgb(255, 0, 255); stroke: rgb(136, 0, 136);" width="30" height="30" rx="3" ry="3" x="1409" y="129">
    <title>Purple</title>
  </rect>
  <rect style="stroke-width: 2px; fill: rgb(255, 0, 255); stroke: rgb(136, 0, 136);" width="30" height="30" rx="3" ry="3" x="1409" y="97">
    <title>Purple</title>
  </rect>
  <rect style="stroke-width: 2px; fill: rgb(255, 0, 255); stroke: rgb(136, 0, 136);" width="30" height="30" rx="3" ry="3" x="1441" y="129">
    <title>Purple</title>
  </rect>
  <rect style="fill: rgb(255, 0, 0); stroke: rgb(136, 0, 0); stroke-width: 2px;" width="30" height="30" rx="3" ry="3" x="1377" y="97">
    <title>Red</title>
  </rect>
  <rect style="fill: rgb(255, 0, 0); stroke: rgb(136, 0, 0); stroke-width: 2px;" width="30" height="30" rx="3" ry="3" x="1345" y="97">
    <title>Red</title>
  </rect>
  <rect style="stroke-width: 2px; fill: rgb(255, 0, 255); stroke: rgb(136, 0, 136);" width="30" height="30" rx="3" ry="3" x="1313" y="97">
    <title>Purple</title>
  </rect>
  <rect style="stroke-width: 2px; fill: rgb(255, 0, 255); stroke: rgb(136, 0, 136);" width="30" height="30" rx="3" ry="3" x="1313" y="65">
    <title>Purple</title>
  </rect>
  <rect style="stroke-width: 2px; fill: rgb(255, 0, 255); stroke: rgb(136, 0, 136);" width="30" height="30" rx="3" ry="3" x="1313" y="33">
    <title>Purple</title>
  </rect>
  <rect style="stroke-width: 2px; fill: rgb(255, 0, 255); stroke: rgb(136, 0, 136);" width="30" height="30" rx="3" ry="3" x="1281" y="65">
    <title>Purple</title>
  </rect>
  <rect style="fill: rgb(0, 255, 255); stroke: rgb(0, 128, 128); paint-order: fill; stroke-width: 2px;" width="30" height="29.9921" rx="3" ry="3" x="1345" y="33">
    <title>Cyan</title>
  </rect>
  <rect style="fill: rgb(0, 255, 255); stroke: rgb(0, 128, 128); paint-order: fill; stroke-width: 2px;" width="30" height="29.9921" rx="3" ry="3" x="1377" y="33">
    <title>Cyan</title>
  </rect>
  <rect style="fill: rgb(0, 255, 255); stroke: rgb(0, 128, 128); paint-order: fill; stroke-width: 2px;" width="30" height="29.9921" rx="3" ry="3" x="1409" y="33">
    <title>Cyan</title>
  </rect>
  <rect style="fill: rgb(0, 255, 255); stroke: rgb(0, 128, 128); paint-order: fill; stroke-width: 2px;" width="30" height="29.9921" rx="3" ry="3" x="1441" y="33">
    <title>Cyan</title>
  </rect>
</svg>